<svg width="883" height="779" viewBox="0 0 883 779" fill="none" xmlns="http://www.w3.org/2000/svg">
<g id="desk" clip-path="url(#clip0_1_2)">
<path id="Vector" d="M369.201 85.1841C354.72 86.1104 338.941 85.1302 322.155 85.1841V46.7522C336.946 49.0548 352.72 48.8183 369.201 46.7522V85.1841Z" fill="#E6E6E6"/>
<path id="Vector_2" d="M490.305 157.622C480.861 158.226 470.571 157.586 459.624 157.622V132.559C469.801 133.984 480.127 133.984 490.305 132.559V157.622Z" fill="#E6E6E6"/>
<path id="Vector_3" d="M532.055 82.4813H167.508V92.6642H532.055V82.4813Z" fill="#E6E6E6"/>
<path id="Vector_4" d="M532.055 154.78H167.508V164.963H532.055V154.78Z" fill="#E6E6E6"/>
<path id="Vector_5" d="M532.055 227.078H167.508V237.261H532.055V227.078Z" fill="#E6E6E6"/>
<g id="clock">
<path id="Vector_6" d="M456.544 455.467C440.166 456.514 422.32 455.406 403.335 455.467V412C420.985 414.472 438.894 414.472 456.544 412V455.467Z" fill="#3F3D56"/>
<path id="Vector_7" d="M430 428C452.091 428 470 410.091 470 388C470 365.909 452.091 348 430 348C407.909 348 390 365.909 390 388C390 410.091 407.909 428 430 428Z" fill="#6C63FF"/>
<path id="Vector_8" d="M430 420C447.673 420 462 405.673 462 388C462 370.327 447.673 356 430 356C412.327 356 398 370.327 398 388C398 405.673 412.327 420 430 420Z" fill="white"/>
<path id="Vector_9" d="M430 396C434.418 396 438 392.418 438 388C438 383.582 434.418 380 430 380C425.582 380 422 383.582 422 388C422 392.418 425.582 396 430 396Z" fill="#6C63FF"/>
<path id="Vector_10" d="M457 389V386H426V389H457Z" fill="#6C63FF"/>
<path id="Vector_11" d="M447.378 410.284L448.948 409.046L431.571 387L430 388.238L447.378 410.284Z" fill="#6C63FF"/>
<path id="Vector_12" d="M428 392H432V368H428V392Z" fill="#6C63FF"/>
</g>
<g id="books1">
<path id="Vector_13" d="M353.201 105.104H339.726V158.443H353.201V105.104Z" fill="#E6E6E6"/>
<path id="Vector_14" d="M353.201 113.526H339.726V119.702H353.201V113.526Z" fill="#CCCCCC"/>
<path id="Vector_15" d="M353.201 140.476H339.726V146.652H353.201V140.476Z" fill="#CCCCCC"/>
<path id="Vector_16" d="M332.426 105.104H318.951V158.443H332.426V105.104Z" fill="#E6E6E6"/>
<path id="Vector_17" d="M332.426 113.526H318.951V119.702H332.426V113.526Z" fill="#CCCCCC"/>
<path id="Vector_18" d="M332.426 140.476H318.951V146.652H332.426V140.476Z" fill="#CCCCCC"/>
<path id="Vector_19" d="M364.811 104.884L352.735 110.862L376.401 158.664L388.477 152.685L364.811 104.884Z" fill="#E6E6E6"/>
<path id="Vector_20" d="M368.548 112.431L356.472 118.41L359.212 123.945L371.288 117.966L368.548 112.431Z" fill="#CCCCCC"/>
<path id="Vector_21" d="M380.505 136.583L368.429 142.562L371.169 148.097L383.246 142.118L380.505 136.583Z" fill="#CCCCCC"/>
</g>
<g id="books3">
<path id="Vector_22" d="M233.042 177.403H219.567V230.741H233.042V177.403Z" fill="#E6E6E6"/>
<path id="Vector_23" d="M233.042 185.825H219.567V192.001H233.042V185.825Z" fill="#CCCCCC"/>
<path id="Vector_24" d="M233.042 212.775H219.567V218.951H233.042V212.775Z" fill="#CCCCCC"/>
<path id="Vector_25" d="M212.269 177.403H198.793V230.741H212.269V177.403Z" fill="#E6E6E6"/>
<path id="Vector_26" d="M212.269 185.825H198.793V192.001H212.269V185.825Z" fill="#CCCCCC"/>
<path id="Vector_27" d="M212.269 212.775H198.793V218.951H212.269V212.775Z" fill="#CCCCCC"/>
<path id="Vector_28" d="M244.653 177.182L232.577 183.161L256.243 230.962L268.319 224.983L244.653 177.182Z" fill="#E6E6E6"/>
<path id="Vector_29" d="M248.39 184.73L236.313 190.708L239.054 196.243L251.13 190.265L248.39 184.73Z" fill="#CCCCCC"/>
<path id="Vector_30" d="M260.347 208.882L248.271 214.861L251.011 220.395L263.087 214.417L260.347 208.882Z" fill="#CCCCCC"/>
</g>
<g id="books2">
<path id="Vector_31" d="M359.31 177.403H345.835V230.741H359.31V177.403Z" fill="#E6E6E6"/>
<path id="Vector_32" d="M359.31 185.825H345.835V192.001H359.31V185.825Z" fill="#CCCCCC"/>
<path id="Vector_33" d="M359.31 212.775H345.835V218.951H359.31V212.775Z" fill="#CCCCCC"/>
<path id="Vector_34" d="M338.536 177.403H325.061V230.741H338.536V177.403Z" fill="#E6E6E6"/>
<path id="Vector_35" d="M338.536 185.825H325.061V192.001H338.536V185.825Z" fill="#CCCCCC"/>
<path id="Vector_36" d="M338.536 212.775H325.061V218.951H338.536V212.775Z" fill="#CCCCCC"/>
<path id="Vector_37" d="M370.921 177.182L358.845 183.161L382.511 230.962L394.587 224.983L370.921 177.182Z" fill="#E6E6E6"/>
<path id="Vector_38" d="M374.657 184.73L362.581 190.708L365.321 196.243L377.397 190.265L374.657 184.73Z" fill="#CCCCCC"/>
<path id="Vector_39" d="M386.615 208.882L374.539 214.861L377.279 220.395L389.355 214.417L386.615 208.882Z" fill="#CCCCCC"/>
</g>
<g id="photo2">
<path id="Vector_40" d="M503.543 32.6458H449.987V86.2017H503.543V32.6458Z" fill="#E6E6E6"/>
<path id="Vector_41" d="M492.832 43.3569H460.699V75.4905H492.832V43.3569Z" fill="#CCCCCC"/>
<path id="Vector_42" d="M470 54.1431L476.814 65.9441L483.627 77.7451H470H456.373L463.187 65.9441L470 54.1431Z" fill="#E6E6E6"/>
<path id="Vector_43" d="M481.839 56.3981L488.653 68.1991L495.466 80.0001H481.839H468.212L475.026 68.1991L481.839 56.3981Z" fill="#E6E6E6"/>
<path id="Vector_44" d="M486.631 52.9406C488.81 52.9406 490.577 51.1738 490.577 48.9943C490.577 46.8149 488.81 45.0481 486.631 45.0481C484.451 45.0481 482.685 46.8149 482.685 48.9943C482.685 51.1738 484.451 52.9406 486.631 52.9406Z" fill="#E6E6E6"/>
</g>
<g id="photo1">
<path id="Vector_45" d="M232.679 32.6458H179.123V86.2017H232.679V32.6458Z" fill="#E6E6E6"/>
<path id="Vector_46" d="M221.968 43.3569H189.834V75.4905H221.968V43.3569Z" fill="#CCCCCC"/>
<path id="Vector_47" d="M199.136 54.1431L205.949 65.9441L212.763 77.7451H199.136H185.509L192.322 65.9441L199.136 54.1431Z" fill="#E6E6E6"/>
<path id="Vector_48" d="M210.975 56.3981L217.788 68.1991L224.601 80.0001H210.975H197.348L204.161 68.1991L210.975 56.3981Z" fill="#E6E6E6"/>
<path id="Vector_49" d="M215.767 52.9406C217.946 52.9406 219.713 51.1738 219.713 48.9943C219.713 46.8149 217.946 45.0481 215.767 45.0481C213.587 45.0481 211.82 46.8149 211.82 48.9943C211.82 51.1738 213.587 52.9406 215.767 52.9406Z" fill="#E6E6E6"/>
</g>
<g id="left">
<path id="Vector_50" d="M342.362 20.0599L345.832 14.6979C344.803 11.8557 343.614 9.07381 342.272 6.36544L340.029 8.17749L341.805 5.43215C340.112 2.09965 338.78 0 338.78 0C338.78 0 331.822 10.9651 329.497 22.5747L333.949 29.4554L329.02 25.4744C328.845 26.8268 328.755 28.1889 328.75 29.5526C328.75 43.3022 333.241 54.4484 338.78 54.4484C344.319 54.4484 348.81 43.3022 348.81 29.5526C348.706 25.1781 347.932 20.8454 346.515 16.7053L342.362 20.0599Z" fill="#E6E6E6"/>
<path id="Vector_51" d="M472.802 115.152L475.064 111.655C474.393 109.801 473.618 107.987 472.743 106.221L471.28 107.402L472.439 105.612C471.335 103.439 470.466 102.07 470.466 102.07C467.678 106.624 465.635 111.594 464.412 116.791L467.315 121.279L464.101 118.682C463.987 119.564 463.928 120.453 463.925 121.342C463.925 130.309 466.853 137.578 470.466 137.578C474.078 137.578 477.007 130.309 477.007 121.342C476.939 118.489 476.434 115.664 475.51 112.964L472.802 115.152Z" fill="#E6E6E6"/>
<path id="Vector_52" d="M71.4974 397.845L74.9669 392.483C73.938 389.64 72.7496 386.859 71.4074 384.15L69.1639 385.962L70.9403 383.217C69.2474 379.884 67.9153 377.785 67.9153 377.785C67.9153 377.785 60.957 388.75 58.6322 400.359L63.0845 407.24L58.1557 403.259C57.9801 404.611 57.8898 405.974 57.8853 407.337C57.8853 421.087 62.3758 432.233 67.9153 432.233C73.4547 432.233 77.9453 421.087 77.9453 407.337C77.8414 402.963 77.0675 398.63 75.6507 394.49L71.4974 397.845Z" fill="#6C63FF"/>
</g>
<g id="right">
<path id="Vector_53" d="M366.92 31.98L373.165 30.6419C374.447 27.9046 375.574 25.0971 376.54 22.2329L373.672 21.9278L376.87 21.2427C378.029 17.6892 378.572 15.2626 378.572 15.2626C378.572 15.2626 365.898 18.0958 356.045 24.6612L354.328 32.6748L353.658 26.3746C352.577 27.2068 351.55 28.1061 350.583 29.0672C340.86 38.7896 336.154 49.8465 340.071 53.7634C343.988 57.6804 355.045 52.9741 364.767 43.2517C367.787 40.085 370.303 36.4741 372.229 32.5448L366.92 31.98Z" fill="#E6E6E6"/>
<path id="Vector_54" d="M488.817 122.925L492.89 122.052C493.726 120.267 494.461 118.436 495.091 116.569L493.221 116.37L495.306 115.923C496.062 113.605 496.416 112.023 496.416 112.023C491.224 113.272 486.265 115.341 481.725 118.152L480.605 123.378L480.168 119.27C479.463 119.812 478.794 120.399 478.163 121.025C471.822 127.366 468.753 134.576 471.308 137.131C473.862 139.685 481.073 136.616 487.413 130.276C489.382 128.211 491.024 125.856 492.279 123.293L488.817 122.925Z" fill="#E6E6E6"/>
<path id="Vector_55" d="M96.0555 409.765L102.3 408.427C103.583 405.689 104.709 402.882 105.675 400.018L102.808 399.713L106.005 399.027C107.164 395.474 107.707 393.047 107.707 393.047C107.707 393.047 95.0333 395.881 85.1803 402.446L83.4631 410.46L82.7929 404.159C81.7124 404.992 80.6854 405.891 79.7179 406.852C69.9955 416.574 65.2892 427.631 69.2062 431.548C73.1231 435.465 84.18 430.759 93.9025 421.036C96.9222 417.87 99.4387 414.259 101.364 410.33L96.0555 409.765Z" fill="#6C63FF"/>
</g>
<path id="Vector_56" d="M98.3364 462.969C83.8552 463.895 68.0765 462.915 51.2905 462.969V424.537C66.0817 426.839 81.8552 426.603 98.3364 424.537V462.969Z" fill="#3F3D56"/>
<path id="Vector_57" d="M696.509 475.031H500.998V728.585H696.509V475.031Z" fill="#E6E6E6"/>
<path id="Vector_58" d="M102.847 488.269H92.6641V728.585H102.847V488.269Z" fill="#E6E6E6"/>
<path id="Vector_59" d="M696.509 457.72H0V478.086H696.509V457.72Z" fill="#E6E6E6"/>
<path id="Vector_60" d="M107.939 478.086H87.5728V498.452H107.939V478.086Z" fill="#E6E6E6"/>
<path id="Vector_61" d="M614.155 489.796L613.009 494.379H584.497L582.779 489.796H510.162V536.638H687.344V489.796H614.155Z" fill="#3F3D56"/>
<path id="Vector_62" d="M614.155 548.857L613.009 553.439H584.497L582.779 548.857H510.162V595.698H687.344V548.857H614.155Z" fill="#3F3D56"/>
<path id="Vector_63" d="M614.155 607.918L613.009 612.5H584.497L582.779 607.918H510.162V654.759H687.344V607.918H614.155Z" fill="#3F3D56"/>
<path id="Vector_64" d="M614.155 666.979L613.009 671.561H584.497L582.779 666.979H510.162V713.82H687.344V666.979H614.155Z" fill="#3F3D56"/>
<path id="Vector_65" d="M295.529 456.038H235.45L237.486 429.563H293.492L295.529 456.038Z" fill="#E6E6E6"/>
<path id="Vector_66" d="M299.602 452.984H232.395V459.094H299.602V452.984Z" fill="#E6E6E6"/>
<path id="Vector_67" d="M380.556 259H150.932C149.312 259 147.758 259.644 146.612 260.789C145.466 261.935 144.822 263.489 144.822 265.11V405.124H386.666V265.11C386.666 263.489 386.022 261.935 384.876 260.789C383.73 259.644 382.176 259 380.556 259Z" fill="#3F3D56"/>
<path id="Vector_68" d="M144.822 405.124V428.036C144.822 429.656 145.466 431.21 146.612 432.356C147.758 433.502 149.312 434.145 150.932 434.145H380.556C382.176 434.145 383.73 433.502 384.876 432.356C386.022 431.21 386.666 429.656 386.666 428.036V405.124H144.822Z" fill="#E6E6E6"/>
<path id="Vector_69" d="M374.956 271.729H157.042V393.923H374.956V271.729Z" fill="white"/>
<path id="Vector_70" d="M265.998 425.49C269.373 425.49 272.108 422.755 272.108 419.38C272.108 416.006 269.373 413.271 265.998 413.271C262.624 413.271 259.889 416.006 259.889 419.38C259.889 422.755 262.624 425.49 265.998 425.49Z" fill="#3F3D56"/>
<path id="Vector_71" d="M865.036 727.057C842.782 728.481 818.533 726.975 792.737 727.057V667.997C815.468 671.535 839.708 671.172 865.036 667.997V727.057Z" fill="#3F3D56"/>
<path id="Vector_72" d="M831.432 673.3H825.322L827.359 553.949H829.395L831.432 673.3Z" fill="#3F3D56"/>
<path id="Vector_73" d="M858.926 674.107H852.816L854.853 554.755H856.889L858.926 674.107Z" fill="#3F3D56"/>
<path id="Vector_74" d="M806.993 674.107H800.883L802.92 554.755H804.956L806.993 674.107Z" fill="#3F3D56"/>
<path id="middle" d="M836.523 477.577L846.386 462.334C843.461 454.255 840.083 446.347 836.268 438.648L829.89 443.799L834.94 435.995C830.127 426.521 826.341 420.553 826.341 420.553C826.341 420.553 806.56 451.723 799.952 484.725L812.608 504.285L798.597 492.969C798.098 496.813 797.842 500.685 797.829 504.562C797.829 543.647 810.594 575.333 826.341 575.333C842.087 575.333 854.853 543.647 854.853 504.562C854.853 492.445 852.111 479.768 848.33 468.041L836.523 477.577Z" fill="#E6E6E6"/>
<path id="right_2" d="M864.017 479.614L873.88 464.371C870.955 456.292 867.577 448.383 863.761 440.684L857.384 445.835L862.434 438.031C857.621 428.558 853.834 422.589 853.834 422.589C853.834 422.589 834.054 453.76 827.446 486.762L840.102 506.322L826.091 495.005C825.592 498.85 825.335 502.722 825.322 506.598C825.322 545.684 838.087 577.369 853.834 577.369C869.581 577.369 882.346 545.684 882.346 506.598C882.346 494.481 879.605 481.804 875.824 470.078L864.017 479.614Z" fill="#6C63FF"/>
<path id="left_2" d="M812.085 479.614L821.947 464.371C819.022 456.292 815.644 448.383 811.829 440.684L805.451 445.835L810.501 438.031C805.688 428.558 801.902 422.589 801.902 422.589C801.902 422.589 782.121 453.76 775.513 486.762L788.169 506.322L774.158 495.005C773.659 498.85 773.403 502.722 773.39 506.598C773.39 545.684 786.155 577.369 801.902 577.369C817.648 577.369 830.414 545.684 830.414 506.598C830.414 494.481 827.673 481.804 823.891 470.078L812.085 479.614Z" fill="#6C63FF"/>
<path id="lines3" d="M318.44 318.524H227.708V321.897H318.44V318.524Z" fill="#6C63FF"/>
<g id="lines1">
<path id="Vector_75" d="M286.464 306.221H227.708V309.594H286.464V306.221Z" fill="#3F3D56"/>
<path id="Vector_76" d="M270.876 341.663H227.708V345.036H270.876V341.663Z" fill="#3F3D56"/>
</g>
<g id="lines2">
<path id="Vector_77" d="M301.653 330.115H227.708V333.488H301.653V330.115Z" fill="#6C63FF"/>
<path id="Vector_78" d="M292.859 353.211H227.708V356.583H292.859V353.211Z" fill="#3F3D56"/>
</g>
<path id="box1" d="M208.123 305.022H200.928V312.217H208.123V305.022Z" fill="#3F3D56"/>
<path id="box2" d="M208.123 316.613H200.928V323.808H208.123V316.613Z" fill="#6C63FF"/>
<path id="box3" d="M208.123 328.205H200.928V335.399H208.123V328.205Z" fill="#6C63FF"/>
<path id="box4" d="M208.123 339.796H200.928V346.991H208.123V339.796Z" fill="#3F3D56"/>
<path id="box5" d="M208.123 351.387H200.928V358.582H208.123V351.387Z" fill="#3F3D56"/>
<path id="Vector_79" d="M364.859 299.836H334.026C331.922 287.672 331.922 275.237 334.026 263.073H364.86C361.386 275.081 361.386 287.828 364.859 299.836Z" fill="#6C63FF"/>
<path id="Vector_80" d="M154.364 377.98C171.685 377.98 185.727 363.938 185.727 346.617C185.727 329.295 171.685 315.253 154.364 315.253C137.042 315.253 123 329.295 123 346.617C123 363.938 137.042 377.98 154.364 377.98Z" fill="#FFB8B8"/>
<path id="Vector_81" d="M144.084 750.379L139.271 748.721L185.896 610.231L192.636 612.553L144.084 750.379Z" fill="#3F3D56"/>
<path id="Vector_82" d="M322.291 750.379L327.105 748.721L280.479 610.231L273.74 612.553L322.291 750.379Z" fill="#3F3D56"/>
<path id="Vector_83" d="M223.77 778.981L228.861 778.999L230.443 617.107L223.315 617.082L223.77 778.981Z" fill="#3F3D56"/>
<path id="Vector_84" d="M132.3 528.856L146.265 585.301C148.221 593.206 152.293 600.429 158.044 606.194C163.795 611.958 171.008 616.048 178.908 618.023C217.856 627.76 258.634 627.497 297.455 617.259L318.306 611.76C330.421 608.565 339.532 598.159 340.394 585.659C340.744 581.239 339.944 576.805 338.071 572.787C337.99 572.614 337.908 572.442 337.826 572.272C335.107 566.686 330.911 561.95 325.694 558.577C320.477 555.204 314.437 553.321 308.228 553.134L286.139 552.421L205.694 516.781C205.694 516.781 178.027 502.728 155.282 501.155C140.262 500.116 128.683 514.24 132.3 528.856Z" fill="#6C63FF"/>
<g id="notepad">
<path id="Vector_85" d="M235 99H192V155H235V99Z" fill="#E6E6E6"/>
<path id="Vector_86" d="M230.038 105.462H196.961V148.538H230.038V105.462Z" fill="white"/>
<path id="Vector_87" d="M226.005 116.734H209.979V118.484H226.005V116.734Z" fill="#3F3D56"/>
<path id="Vector_88" d="M204.889 115.766H200.994V119.498H204.889V115.766Z" fill="#3F3D56"/>
<path id="Vector_89" d="M226.005 124.131H209.979V125.88H226.005V124.131Z" fill="#3F3D56"/>
<path id="Vector_90" d="M204.889 123.162H200.994V126.895H204.889V123.162Z" fill="#3F3D56"/>
<path id="Vector_91" d="M226.005 131.527H209.979V133.277H226.005V131.527Z" fill="#3F3D56"/>
<path id="Vector_92" d="M204.889 130.558H200.994V134.291H204.889V130.558Z" fill="#3F3D56"/>
<path id="Vector_93" d="M215.154 102.17C215.154 101.294 214.413 100.585 213.5 100.585C212.587 100.585 211.846 101.294 211.846 102.17C211.846 103.045 212.587 103.755 213.5 103.755C214.413 103.755 215.154 103.045 215.154 102.17Z" fill="#3F3D56"/>
</g>
<path id="Arnav" d="M590.32 408.07V426.41L599 429.35V441.88L549.86 424.1V410.24L599 392.46V405.13L590.32 408.07ZM581.08 411.15L563.09 417.24L581.08 423.26V411.15ZM566.45 375.079C564.303 373.679 562.623 371.929 561.41 369.829C560.15 367.729 559.52 365.395 559.52 362.829H572.19V366.119C572.19 369.105 572.843 371.345 574.15 372.839C575.41 374.332 577.65 375.079 580.87 375.079H599V387.049H559.94V375.079H566.45ZM559.52 333.307C559.52 328.734 561.013 325.094 564 322.387C566.94 319.634 571 318.257 576.18 318.257H599V330.157H577.79C575.177 330.157 573.147 330.834 571.7 332.187C570.253 333.541 569.53 335.361 569.53 337.647C569.53 339.934 570.253 341.754 571.7 343.107C573.147 344.461 575.177 345.137 577.79 345.137H599V357.107H559.94V345.137H565.12C563.393 343.924 562.04 342.291 561.06 340.237C560.033 338.184 559.52 335.874 559.52 333.307ZM579.4 312.319C575.387 312.319 571.863 311.573 568.83 310.079C565.797 308.539 563.463 306.463 561.83 303.849C560.197 301.236 559.38 298.319 559.38 295.099C559.38 292.346 559.94 289.943 561.06 287.889C562.18 285.789 563.65 284.179 565.47 283.059H559.94V271.089H599V283.059H593.47C595.29 284.226 596.76 285.859 597.88 287.959C599 290.013 599.56 292.416 599.56 295.169C599.56 298.343 598.743 301.236 597.11 303.849C595.43 306.463 593.073 308.539 590.04 310.079C586.96 311.573 583.413 312.319 579.4 312.319ZM579.47 283.059C576.483 283.059 574.127 283.899 572.4 285.579C570.673 287.213 569.81 289.219 569.81 291.599C569.81 293.979 570.673 296.009 572.4 297.689C574.08 299.323 576.413 300.139 579.4 300.139C582.387 300.139 584.767 299.323 586.54 297.689C588.267 296.009 589.13 293.979 589.13 291.599C589.13 289.219 588.267 287.213 586.54 285.579C584.813 283.899 582.457 283.059 579.47 283.059ZM587.8 244.86L559.94 236.39V223.65L599 237.51V252.28L559.94 266.14V253.33L587.8 244.86Z" fill="#6C63FF"/>
<path id="Sharma" d="M669.49 425.88C669.49 429.473 668.907 432.693 667.74 435.54C666.573 438.387 664.847 440.673 662.56 442.4C660.273 444.08 657.52 444.967 654.3 445.06V432.32C656.12 432.133 657.52 431.503 658.5 430.43C659.433 429.357 659.9 427.957 659.9 426.23C659.9 424.457 659.503 423.057 658.71 422.03C657.87 421.003 656.727 420.49 655.28 420.49C654.067 420.49 653.063 420.91 652.27 421.75C651.477 422.543 650.823 423.547 650.31 424.76C649.797 425.927 649.213 427.607 648.56 429.8C647.58 432.973 646.6 435.563 645.62 437.57C644.64 439.577 643.193 441.303 641.28 442.75C639.367 444.197 636.87 444.92 633.79 444.92C629.217 444.92 625.647 443.263 623.08 439.95C620.467 436.637 619.16 432.32 619.16 427C619.16 421.587 620.467 417.223 623.08 413.91C625.647 410.597 629.24 408.823 633.86 408.59V421.54C632.273 421.633 631.037 422.217 630.15 423.29C629.217 424.363 628.75 425.74 628.75 427.42C628.75 428.867 629.147 430.033 629.94 430.92C630.687 431.807 631.783 432.25 633.23 432.25C634.817 432.25 636.053 431.503 636.94 430.01C637.827 428.517 638.783 426.183 639.81 423.01C640.883 419.837 641.91 417.27 642.89 415.31C643.87 413.303 645.293 411.577 647.16 410.13C649.027 408.683 651.43 407.96 654.37 407.96C657.17 407.96 659.713 408.683 662 410.13C664.287 411.53 666.107 413.583 667.46 416.29C668.813 418.997 669.49 422.193 669.49 425.88ZM629.52 376.584C629.52 372.104 631.013 368.51 634 365.804C636.94 363.097 641 361.744 646.18 361.744H669V373.644H647.79C645.177 373.644 643.147 374.32 641.7 375.674C640.253 377.027 639.53 378.847 639.53 381.134C639.53 383.42 640.253 385.24 641.7 386.594C643.147 387.947 645.177 388.624 647.79 388.624H669V400.594H617.2V388.624H635.19C633.463 387.41 632.087 385.754 631.06 383.654C630.033 381.554 629.52 379.197 629.52 376.584ZM649.4 355.806C645.387 355.806 641.863 355.059 638.83 353.566C635.797 352.026 633.463 349.949 631.83 347.336C630.197 344.722 629.38 341.806 629.38 338.586C629.38 335.832 629.94 333.429 631.06 331.376C632.18 329.276 633.65 327.666 635.47 326.546H629.94V314.576H669V326.546H663.47C665.29 327.712 666.76 329.346 667.88 331.446C669 333.499 669.56 335.902 669.56 338.656C669.56 341.829 668.743 344.722 667.11 347.336C665.43 349.949 663.073 352.026 660.04 353.566C656.96 355.059 653.413 355.806 649.4 355.806ZM649.47 326.546C646.483 326.546 644.127 327.386 642.4 329.066C640.673 330.699 639.81 332.706 639.81 335.086C639.81 337.466 640.673 339.496 642.4 341.176C644.08 342.809 646.413 343.626 649.4 343.626C652.387 343.626 654.767 342.809 656.54 341.176C658.267 339.496 659.13 337.466 659.13 335.086C659.13 332.706 658.267 330.699 656.54 329.066C654.813 327.386 652.457 326.546 649.47 326.546ZM636.45 293.946C634.303 292.546 632.623 290.796 631.41 288.696C630.15 286.596 629.52 284.263 629.52 281.696H642.19V284.986C642.19 287.973 642.843 290.213 644.15 291.706C645.41 293.199 647.65 293.946 650.87 293.946H669V305.916H629.94V293.946H636.45ZM629.52 226.134C629.52 221.281 630.99 217.431 633.93 214.584C636.87 211.691 640.953 210.244 646.18 210.244H669V222.144H647.79C645.27 222.144 643.333 222.821 641.98 224.174C640.58 225.481 639.88 227.301 639.88 229.634C639.88 231.968 640.58 233.811 641.98 235.164C643.333 236.471 645.27 237.124 647.79 237.124H669V249.024H647.79C645.27 249.024 643.333 249.701 641.98 251.054C640.58 252.361 639.88 254.181 639.88 256.514C639.88 258.848 640.58 260.691 641.98 262.044C643.333 263.351 645.27 264.004 647.79 264.004H669V275.974H629.94V264.004H634.84C633.207 262.791 631.923 261.204 630.99 259.244C630.01 257.284 629.52 255.068 629.52 252.594C629.52 249.654 630.15 247.041 631.41 244.754C632.67 242.421 634.467 240.601 636.8 239.294C634.653 237.941 632.903 236.098 631.55 233.764C630.197 231.431 629.52 228.888 629.52 226.134ZM649.4 204.253C645.387 204.253 641.863 203.506 638.83 202.013C635.797 200.473 633.463 198.396 631.83 195.783C630.197 193.17 629.38 190.253 629.38 187.033C629.38 184.28 629.94 181.876 631.06 179.823C632.18 177.723 633.65 176.113 635.47 174.993H629.94V163.023H669V174.993H663.47C665.29 176.16 666.76 177.793 667.88 179.893C669 181.946 669.56 184.35 669.56 187.103C669.56 190.276 668.743 193.17 667.11 195.783C665.43 198.396 663.073 200.473 660.04 202.013C656.96 203.506 653.413 204.253 649.4 204.253ZM649.47 174.993C646.483 174.993 644.127 175.833 642.4 177.513C640.673 179.146 639.81 181.153 639.81 183.533C639.81 185.913 640.673 187.943 642.4 189.623C644.08 191.256 646.413 192.073 649.4 192.073C652.387 192.073 654.767 191.256 656.54 189.623C658.267 187.943 659.13 185.913 659.13 183.533C659.13 181.153 658.267 179.146 656.54 177.513C654.813 175.833 652.457 174.993 649.47 174.993Z" fill="#6C63FF"/>
</g>
<defs>
<clipPath id="clip0_1_2">
<rect width="882.346" height="778.999" fill="white"/>
</clipPath>
</defs>
</svg>
